<svg width="216" height="216" viewBox="0 0 216 216" fill="none" xmlns="http://www.w3.org/2000/svg">
<path d="M105.51 10.9091C106.27 3.40746 113.719 -1.69046 121.249 0.519711C123.269 1.13275 129.07 3.93984 125.644 6.15001C125.014 6.68239 124.546 7.21477 123.851 7.47289C123.414 7.58582 122.978 7.34383 122.477 7.00504C121.508 6.24681 120.328 5.63376 119.084 5.42404C114.866 4.56901 111.101 7.66648 110.923 11.9094C110.6 15.8135 113.719 19.1045 117.759 19.1691C120.457 19.2659 122.849 17.9753 123.027 15.8619C122.267 15.0552 118.518 15.394 117.807 14.9584C117.112 14.8455 117.29 13.3936 117.371 12.6031C117.5 11.748 117.371 10.3122 118.486 10.3606C119.649 10.4413 124.222 10.9091 126.679 11.1511C127.842 11.2963 128.424 11.1834 128.65 11.748C128.892 12.4417 128.65 13.9582 128.505 15.0068C126.178 30.0909 104.104 25.6867 105.445 11.1995L105.478 10.893L105.51 10.9091Z" fill="#FFFDF3"/>
<path d="M134.564 14.6194C141.868 -0.367852 163.958 10.3281 156.508 25.4121C149.043 38.8184 128.698 29.1872 134.451 14.8936L134.564 14.6355V14.6194ZM143.048 26.0413C149.172 28.8 155.183 20.9918 151.434 15.6196C144.05 6.44013 132.706 20.411 142.822 25.9445L143.048 26.0413Z" fill="#FFFDF3"/>
<path d="M156.929 39.0926C157.833 37.5923 167.561 25.396 168.256 24.3151C168.127 23.8473 167.093 23.331 166.543 22.8309C165.428 21.8791 164.62 21.6532 164.733 20.7982C165.057 19.9916 165.978 19.0559 166.495 18.3299C166.915 17.8298 167.238 17.5233 167.755 17.7169C170.131 19.5076 176.093 24.1215 178.76 26.1704C179.826 26.9286 179.131 27.4932 178.178 28.7516C177.58 29.526 177.128 30.1713 176.74 30.2519C175.689 30.3165 173.766 28.2031 173.023 27.8159C172.845 27.6868 172.732 27.6223 172.651 27.6223C172.344 27.7836 169.904 31.1392 167.222 34.5271C164.41 38.0763 162.18 41.206 161.146 42.2869C160.047 42.5934 159.029 41.0608 157.801 40.3348C157.139 39.8509 156.896 39.4476 156.896 39.1894V39.0765L156.929 39.0926Z" fill="#FFFDF3"/>
<path d="M167.949 47.8855C172.361 44.0943 183.963 35.2859 185.789 33.7533C186.128 33.5274 186.371 33.5435 186.791 33.8823C187.389 34.5599 189.231 36.3829 189.376 37.5122C189.312 37.9639 188.794 38.2704 187.922 38.9641C186.548 40.1579 183.106 42.5133 182.201 43.6103C182.169 43.8523 182.735 44.4331 183.51 45.4333C184.609 46.7885 185.902 48.5147 186.968 49.773C187.275 50.1118 187.566 49.6762 188.601 48.9018C190.507 47.5467 192.818 45.272 194.644 44.3524C195.097 44.2234 195.711 44.9655 196.567 46.0948C197.553 47.4015 198.199 47.9661 197.714 48.6599C196.195 49.8375 182.121 61.0497 179.81 62.6953C178.776 62.8082 178.291 61.5337 177.451 60.6142C176.82 59.7107 176.061 59.1945 176.627 58.3717C177.984 57.0488 182.105 54.2902 183.22 52.9834C182.476 51.6444 179.034 47.5306 178.356 46.7401C177.709 46.6594 176.4 48.1597 175.512 48.7244C173.605 50.1118 172.361 51.4508 171.165 51.9509C170.421 51.9348 170.082 51.2088 169.484 50.5312C168.919 49.7569 167.884 48.7566 167.933 47.9984L167.965 47.9016L167.949 47.8855Z" fill="#FFFDF3"/>
<path d="M181.636 66.9867C185.191 65.0991 189.021 63.2439 192.996 61.2112C197.294 59.0333 201.334 57.0005 202.029 56.6456C202.271 56.5488 202.481 56.5811 202.756 56.7747C203.37 57.5168 203.903 58.9687 204.42 59.856C204.76 60.4691 204.889 60.8401 204.76 61.1305C204.42 61.7274 203.968 61.6306 203.273 62.0823C198.991 64.2441 185.595 71.036 184.27 71.6974C183.963 71.8103 183.704 71.7458 183.413 71.4231C183.123 70.9876 182.412 69.4872 181.895 68.487C181.474 67.7933 181.442 67.3577 181.604 67.0996L181.652 67.0028L181.636 66.9867Z" fill="#FFFDF3"/>
<path d="M197.359 71.971C206.828 69.0187 216.12 79.876 211.53 88.9103C210.916 90.0557 210.367 89.9428 209.204 89.2813C208.379 88.7651 207.442 88.5554 206.941 87.7487C206.715 87.1196 207.264 86.0387 207.378 85.0223C208.105 80.1987 203.612 75.8106 198.668 77.3432C192.414 79.0694 192.139 86.5065 196.68 90.1525C197.181 90.9753 196.519 91.5722 195.872 92.7176C195.113 94.0243 194.757 94.7019 193.481 93.9114C184.932 88.4424 187.453 74.3909 197.068 72.0517L197.359 71.971Z" fill="#FFFDF3"/>
<path d="M192.834 105.882C193.642 105.688 194.531 106.076 196.648 106.253C202.546 107.027 213.728 108.463 215.409 108.705C215.619 108.754 215.78 108.85 215.877 109.028C216.265 110.157 215.635 112.706 215.506 113.771C215.344 114.416 215.247 114.642 214.714 114.819C213.195 115.239 200.752 118.191 197.149 119.175C199.831 120.918 210.044 126.209 212.985 127.935C213.841 128.629 213.389 129.371 213.292 130.823C213.001 132.065 213.292 134.114 211.918 134.05C209.349 133.711 191.978 131.468 189.877 131.178C189.263 130.984 189.279 130.662 189.279 129.807C189.344 128.903 189.522 127.258 189.796 126.532C189.974 126.064 190.168 125.903 190.62 125.87C192.656 126.032 197.73 126.79 200.219 127.08C202.271 127.322 203.548 127.58 203.176 127.371C200.251 125.806 192.867 121.999 191.267 121.127C190.604 120.756 190.604 120.192 190.653 119.401C190.798 118.272 190.798 116.917 191.412 116.126C194.466 114.965 201.948 113.755 205.148 112.835C205.18 112.819 205.148 112.803 205.083 112.787C204.146 112.642 194.676 111.448 192.753 111.157C192.123 111.012 191.962 110.786 191.945 110.044C191.994 109.109 192.139 106.624 192.77 105.947L192.85 105.882H192.834Z" fill="#FFFDF3"/>
<path d="M198.797 139.438C213.389 147.536 201.479 168.993 186.791 160.717C173.799 152.521 184.561 132.775 198.538 139.309L198.797 139.438ZM186.904 147.262C182.654 157.942 200.364 161.491 200.138 149.698C199.637 143.229 189.926 140.987 187.017 147.036L186.904 147.262Z" fill="#FFFDF3"/>
<path d="M184.027 166.477C195.323 178.754 177.273 195.354 165.945 182.9C156.185 171.058 172.619 155.7 183.834 166.267L184.044 166.477H184.027ZM170.276 170.171C165.461 174.85 170.535 183.287 176.917 181.787C188.18 178.286 179.309 162.637 170.454 169.994L170.276 170.171Z" fill="#FFFDF3"/>
<path d="M143.613 183.432C145.181 184.271 156.411 192.063 157.51 192.724C156.492 190.272 151.402 181.173 150.966 180.092C150.837 179.689 150.901 179.463 151.257 179.141C151.855 178.657 153.648 177.753 154.537 177.35C155.216 177.124 155.458 177.156 155.733 177.576C156.718 179.85 165.913 196.064 166.22 197.951C165.832 198.742 163.021 199.887 162.196 200.387C161.502 200.678 161.243 200.823 160.694 200.549C159.272 199.629 147.508 191.627 147.039 191.369C147.104 191.789 147.863 192.934 148.736 194.692C150.206 197.548 152.372 201.436 153.681 204.162C154.004 204.679 152.695 205.469 151.984 205.792C151.111 206.147 149.528 207.518 148.865 206.534C147.944 204.791 140.705 191.063 138.782 187.433C137.715 185.836 138.782 185.674 140.737 184.577C142.127 183.884 142.741 183.416 143.484 183.4H143.597L143.613 183.432Z" fill="#FFFDF3"/>
<path d="M129.345 201.274C130.831 211.067 118.696 218.649 110.406 212.777C109.356 212.002 109.55 211.47 110.39 210.421C111.02 209.679 111.376 208.776 112.265 208.421C112.911 208.292 113.913 209.002 114.915 209.26C119.601 210.68 124.626 206.888 123.851 201.791C123.075 195.354 115.723 193.998 111.44 197.935C110.552 198.306 110.051 197.564 109.017 196.773C107.837 195.821 107.223 195.386 108.176 194.24C114.85 186.61 128.44 191.143 129.312 200.984L129.345 201.274Z" fill="#FFFDF3"/>
<path d="M92.3079 190.223C93.2613 192.014 94.4571 195.095 95.362 197.047C95.8145 197.951 95.7983 198.467 96.5416 198.725C97.4789 198.903 97.4142 198.112 97.5597 197.209C97.8182 195.45 98.1737 192.708 98.3353 191.756C98.61 190.675 99.2725 190.885 100.727 191.078C101.971 191.369 103.749 191.078 103.652 192.417C103.28 195.015 100.808 212.841 100.549 214.503C100.129 215.309 99.5311 215.003 98.2383 214.858C94.4086 214.164 89.7548 214.406 86.9754 211.341C83.889 207.856 85.2464 200.838 89.577 199.112C90.1264 198.854 90.5466 198.709 90.595 198.435C90.4011 197.305 89.2377 195.402 88.6883 193.998C87.8641 192.127 87.04 190.546 86.8784 189.917C86.8461 189.691 86.8784 189.529 87.04 189.433C87.6379 189.126 88.8499 189.465 89.6901 189.546C90.5304 189.675 91.71 189.739 92.211 190.159L92.3079 190.255V190.223ZM94.2632 203.258C91.6616 202.742 90.0133 204.694 90.5627 207.259C91.0798 209.389 93.9885 209.324 95.6529 209.598C95.9276 209.695 95.7821 209.324 95.9437 208.566C96.1053 207.388 96.4285 205.162 96.5901 204.017C96.6547 203.468 96.8002 203.629 95.9114 203.484L94.3925 203.274H94.2632V203.258Z" fill="#FFFDF3"/>
<path d="M83.485 188.352C83.081 190.079 76.4073 206.84 75.47 209.486C75.3246 209.906 75.0337 210.115 74.5166 210.067C72.0604 209.244 68.1014 207.647 65.4836 206.679C63.9808 206.05 63.1729 205.969 62.9628 205.453C62.7204 204.775 63.8354 202.194 64.2555 201.662C64.4979 201.452 64.6918 201.339 65.0473 201.436C65.6776 201.581 67.0188 202.162 68.5054 202.71C69.8143 203.194 71.0101 203.694 71.4625 203.791C71.8019 203.775 71.8988 203.646 72.0443 203.275C72.2705 202.388 73.4501 200.403 73.2077 199.597C71.915 198.839 68.4085 197.774 67.3904 197.274C66.5502 196.919 66.6794 196.209 67.0026 195.37C67.5682 194.031 67.7783 192.724 68.667 192.74C69.685 192.837 73.5148 194.692 74.9853 194.951C75.3246 194.951 75.4862 194.241 75.9063 193.208C76.2457 192.321 76.6335 191.385 76.7304 190.966C76.8759 190.45 76.5042 190.385 75.6155 190.046C74.1611 189.433 70.9455 188.385 70.0729 187.852C69.4103 187.594 70.0729 185.981 70.4284 185.126C70.7354 184.384 71.0909 183.271 71.9635 183.561C73.3532 184.061 80.9965 186.981 82.7417 187.642C83.0649 187.772 83.3396 187.997 83.4365 188.272L83.4688 188.368L83.485 188.352Z" fill="#FFFDF3"/>
<path d="M68.5862 182.964C65.0312 185.835 60.6521 188.804 56.6446 191.837C52.9441 194.563 49.7123 196.951 49.1144 197.37C48.8559 197.483 48.6781 197.515 48.3388 197.403C47.757 197.193 47.1107 196.644 46.4805 196.241C45.3816 195.37 44.2828 195.079 44.1212 194.047C45.7048 188.094 49.9224 173.187 50.5364 170.913C51.0535 169.606 53.1704 171.945 53.9945 172.3C54.4954 172.639 54.8671 172.881 55.0448 173.139C55.675 173.542 54.1884 176.527 54.4631 176.946C54.6732 177.269 56.1275 178.14 57.6788 179.253C59.0846 180.221 60.5228 181.221 61.0722 181.593C61.3308 181.754 61.4762 181.754 61.8155 181.512C62.9467 180.899 63.997 179.027 65.3867 180.173C66.13 180.85 68.4731 181.851 68.6186 182.883V182.98L68.5862 182.964ZM52.8633 181.77C52.1847 183.996 50.9889 187.949 50.2617 190.353C49.7931 190.804 56.8708 185.287 57.3718 184.916C56.4184 184.077 53.8491 182.496 52.8795 181.77H52.8633Z" fill="#FFFDF3"/>
<path d="M48.2417 167.267C47.1106 168.606 35.6537 179.189 34.7973 180.14C34.8619 180.624 35.783 181.286 36.2516 181.867C37.205 182.98 37.9806 183.319 37.7382 184.141C37.3019 184.9 36.2516 185.674 35.6214 186.319C35.1204 186.755 34.7649 187.013 34.2802 186.723C32.1956 184.593 27.0408 179.124 24.7139 176.688C23.7767 175.768 24.5523 175.333 25.6835 174.22C26.3945 173.542 26.9277 172.978 27.3317 172.961C28.3659 173.058 29.9495 175.446 30.6282 175.93C30.7898 176.091 30.8867 176.172 30.9514 176.172C31.2745 176.059 34.1994 173.123 37.3666 170.17C40.6792 167.105 43.3616 164.33 44.5574 163.427C45.6886 163.298 46.4642 164.96 47.5469 165.879C48.1286 166.46 48.3063 166.896 48.274 167.154V167.267H48.2417Z" fill="#FFFDF3"/>
<path d="M38.8209 156.313C34.3772 159.378 23.0819 166.799 19.8177 169.025C19.2037 169.332 18.832 168.783 18.4442 168.17C18.0564 167.573 17.4585 166.702 17.0707 166.122C15.9718 164.75 16.8444 164.508 17.9433 163.782C21.9346 161.12 34.4256 152.78 35.6537 151.973C35.9446 151.812 36.2031 151.86 36.5425 152.151C36.8818 152.538 37.7706 153.957 38.4008 154.877C38.9017 155.522 38.9825 155.942 38.8694 156.232L38.8209 156.329V156.313Z" fill="#FFFDF3"/>
<path d="M30.6283 141.81C29.384 143.197 13.8388 156.539 12.4007 157.862C12.1745 157.975 11.9159 157.975 11.5927 157.539C11.1726 156.749 9.84753 154.2 9.99296 153.07C11.011 151.796 16.7637 147.359 20.5934 144.036C22.2255 142.649 23.4051 141.729 23.3728 141.664C20.4156 141.794 7.21358 142.939 6.19555 142.955C4.90281 142.729 4.82202 140.809 4.12717 139.583C3.64239 138.519 3.49696 137.583 4.85433 137.712C8.63559 137.502 25.5219 136.567 27.9781 136.438C29.2547 136.486 29.3194 137.954 29.9496 139.196C30.3536 140.277 30.7252 140.777 30.6606 141.681L30.6283 141.794V141.81Z" fill="#FFFDF3"/>
<path d="M25.0048 126.209C23.3081 126.709 5.50069 129.129 2.73746 129.629C2.31732 129.71 1.97798 129.565 1.76791 129.097C1.28314 126.564 0.749882 122.337 0.313584 119.611C0.119673 117.998 -0.187351 117.256 0.151992 116.82C0.766041 116.272 3.64238 115.82 4.3857 116.207C5.12903 117.272 5.30678 122.047 5.74307 123.354C5.92083 123.628 6.06626 123.66 6.4864 123.612C7.22972 123.515 8.61941 123.305 9.37889 123.192C10.7363 123.015 10.2353 122.579 10.1222 121.273C9.94447 119.788 9.37889 116.885 9.45969 116.207C9.33042 115.481 11.318 115.287 12.3683 115.142C13.7419 114.949 14.1297 115.11 14.2913 116.804C14.566 118.175 14.7599 120.837 15.1639 122.095C15.3416 122.386 16.0203 122.192 17.1191 122.047C18.0564 121.902 19.0421 121.789 19.4622 121.66C19.9793 121.531 19.8501 121.192 19.7208 120.24C19.543 118.675 18.8805 115.368 18.929 114.352C18.832 113.658 20.5611 113.432 21.4821 113.319C22.2739 113.206 23.4051 112.98 23.5828 113.884C23.8252 115.336 25.0048 123.402 25.2795 125.225C25.328 125.58 25.2795 125.919 25.0695 126.145L25.0048 126.209Z" fill="#FFFDF3"/>
<path d="M19.8986 101.946C19.2845 102.01 18.7028 101.188 18.2665 100.671C17.6363 99.897 16.9899 99.1872 17.2485 98.6064C17.4424 98.0095 18.2665 97.3481 18.7836 96.7189C19.7854 95.5412 20.351 93.6214 19.8016 92.0081C19.236 90.5401 17.2646 90.411 16.3274 91.7016C14.2267 94.2183 12.8532 98.1708 9.44356 99.2356C3.77168 100.93 -0.752894 95.4444 0.959981 89.8302C1.33164 87.975 4.43421 82.2801 6.51875 85.0872C7.31055 86.0713 8.52249 86.9425 7.50446 88.1202C6.5349 89.2817 5.56535 90.4594 5.69463 92.1211C5.69463 93.6537 7.18127 94.6216 8.44169 93.8795C10.914 91.7823 11.8836 87.8782 14.8569 86.1842C16.8283 84.9098 20.1248 85.2163 22.0316 86.5553C27.1702 90.1206 25.2149 99.4776 20.1086 101.93L19.9147 101.962L19.8986 101.946Z" fill="#FFFDF3"/>
<path d="M27.7681 79.8274C26.0714 79.3918 11.5927 73.6324 10.3646 73.2775C9.96066 73.5356 9.76675 74.6649 9.4274 75.3425C8.84567 76.6815 8.86183 77.5204 8.00539 77.6656C7.1328 77.5849 5.98549 76.9719 5.12906 76.6976C4.53117 76.4395 4.14335 76.2137 4.19182 75.6651C5.20985 72.8742 7.9246 65.8565 9.12038 62.7106C9.54052 61.4684 10.2677 61.9685 11.7543 62.517C12.6592 62.8719 13.4026 63.1139 13.5965 63.4688C13.952 64.4529 12.4815 66.889 12.3361 67.7117C12.2553 67.9215 12.2391 68.0505 12.2553 68.1151C12.4977 68.357 16.4082 69.7283 20.4318 71.3093C24.6332 72.971 28.269 74.1971 29.5941 74.8746C30.192 75.8426 29.0285 77.2461 28.673 78.6336C28.4145 79.4079 28.0913 79.7628 27.8327 79.8435L27.7196 79.8758L27.7681 79.8274Z" fill="#FFFDF3"/>
<path d="M25.7643 61.9363C22.5809 59.6132 15.5355 55.1445 14.0488 53.628C13.9196 52.6923 14.776 52.0309 15.4062 50.9823C15.8748 50.337 16.4889 49.2077 17.2322 49.4981C21.4336 51.9825 26.2329 56.3867 30.5959 58.242C33.6338 59.2422 36.4617 55.451 34.7488 52.8214C32.6481 50.1434 31.2099 49.9659 28.3013 47.7073C25.6996 45.9005 22.8233 43.9162 21.9507 43.3031C21.7729 43.1579 21.5467 42.9643 21.5306 42.7223C21.579 41.706 23.8252 38.7537 24.3423 38.6892C24.8109 38.5924 25.1179 38.9634 25.9905 39.5281C29.3031 41.948 34.3771 45.0777 37.7059 47.8525C46.3834 55.6446 35.0396 68.9056 25.9582 62.0331L25.7804 61.9202L25.7643 61.9363Z" fill="#FFFDF3"/>
<path d="M46.2219 48.6914C42.4245 44.4001 32.9067 32.7361 31.5978 31.2519C31.4201 30.9293 31.4362 30.655 31.7756 30.2517C32.9875 29.2354 36.3971 26.2831 38.1908 24.9602C43.7172 20.7012 51.1181 22.137 55.0771 28.0738C59.9895 35.1238 56.3052 41.7059 49.8739 46.2069C48.2418 47.3685 47.4985 48.643 46.3188 48.7075L46.2219 48.6752V48.6914ZM49.5507 40.2701C55.9659 35.6723 48.6781 25.4442 42.6022 27.977C41.1964 28.4933 39.6774 29.8968 38.5463 30.8325C38.2392 31.0745 38.5463 31.0745 38.8371 31.5262C41.0186 34.1397 44.3636 38.1567 46.5774 40.8025C47.1106 41.4155 47.4177 41.8511 47.5146 41.9156C47.8863 41.7382 48.9689 40.7541 49.4052 40.4153L49.5507 40.2862V40.2701Z" fill="#FFFDF3"/>
<path d="M65.1928 34.4628C63.2052 30.962 61.2661 27.1869 59.1169 23.2828C56.8385 19.0561 54.6731 15.0713 54.3176 14.3937C54.2045 14.1517 54.2368 13.942 54.4307 13.6678C55.1579 13.0386 56.5961 12.4578 57.4687 11.9254C58.0666 11.5705 58.4382 11.4415 58.7291 11.5544C59.327 11.877 59.2462 12.3287 59.7148 13.0063C61.9932 17.2331 69.1356 30.4296 69.8305 31.7202C69.9597 32.0106 69.8951 32.2687 69.5719 32.5914C69.1518 32.8979 67.649 33.64 66.6794 34.1885C65.9846 34.6241 65.5644 34.6725 65.2897 34.5273L65.1928 34.4789V34.4628Z" fill="#FFFDF3"/>
<path d="M69.9274 18.362C66.1138 2.13253 90.0294 -3.49777 93.7783 12.9092C96.4446 28.0255 74.565 33.3492 70.0082 18.6362L69.9274 18.362ZM83.7435 21.895C94.5217 17.8457 85.2301 2.37452 76.6496 10.4731C72.1896 15.2 77.0697 23.8794 83.5172 21.9596L83.7596 21.895H83.7435Z" fill="#FFFDF3"/>
</svg>
