<svg width="22" height="22" viewBox="0 0 22 22" fill="none" xmlns="http://www.w3.org/2000/svg">
<g clip-path="url(#clip0_1001_3480)">
<path d="M20.625 12.375C18.437 12.375 16.3385 13.2442 14.7914 14.7914C13.2442 16.3385 12.375 18.437 12.375 20.625C12.375 20.9897 12.2301 21.3394 11.9723 21.5973C11.7144 21.8551 11.3647 22 11 22C10.6353 22 10.2856 21.8551 10.0277 21.5973C9.76987 21.3394 9.625 20.9897 9.625 20.625C9.625 19.5416 9.41161 18.4688 8.99701 17.4679C8.5824 16.4669 7.97471 15.5575 7.20863 14.7914C6.44255 14.0253 5.53307 13.4176 4.53214 13.003C3.5312 12.5884 2.45841 12.375 1.375 12.375C1.01033 12.375 0.660591 12.2301 0.402728 11.9723C0.144866 11.7144 0 11.3647 0 11C0 10.6353 0.144866 10.2856 0.402728 10.0277C0.660591 9.76987 1.01033 9.625 1.375 9.625C2.45841 9.625 3.5312 9.41161 4.53214 8.99701C5.53307 8.5824 6.44255 7.97471 7.20863 7.20863C7.97471 6.44255 8.5824 5.53307 8.99701 4.53214C9.41161 3.5312 9.625 2.45841 9.625 1.375C9.625 1.01033 9.76987 0.660591 10.0277 0.402728C10.2856 0.144866 10.6353 -4.76837e-07 11 -4.76837e-07C11.3647 -4.76837e-07 11.7144 0.144866 11.9723 0.402728C12.2301 0.660591 12.375 1.01033 12.375 1.375C12.375 3.56304 13.2442 5.66146 14.7914 7.20863C16.3385 8.75581 18.437 9.625 20.625 9.625C20.9897 9.625 21.3394 9.76987 21.5973 10.0277C21.8551 10.2856 22 10.6353 22 11C22 11.3647 21.8551 11.7144 21.5973 11.9723C21.3394 12.2301 20.9897 12.375 20.625 12.375Z" fill="#F4F3FF"/>
</g>
<defs>
<clipPath id="clip0_1001_3480">
<rect width="22" height="22" fill="white" transform="matrix(1 0 0 -1 0 22)"/>
</clipPath>
</defs>
</svg>
