<svg width="57" height="76" viewBox="0 0 57 76" fill="none" xmlns="http://www.w3.org/2000/svg">
<path d="M31.2668 35.7C46.4668 36.6 56.8668 44 56.8668 53.9C56.8668 67.4 44.9668 76 23.6668 76C16.0668 76 8.9668 74.6 2.3668 71.6L6.9668 47.6H7.0668L20.5668 73.8C21.2668 74 21.8668 74.1 22.7668 74.1C28.5668 74.1 33.8668 67.5 33.8668 55.8C33.8668 45.3 26.9668 37 15.1668 37V36C25.8668 36 30.0668 30 30.0668 17C30.0668 7.6 27.2668 1.9 22.6668 1.9C21.8668 1.9 20.9668 2 20.3668 2.19999L9.9668 28.1H9.8668L0.966797 6.5C8.8668 2.1 16.8668 0 26.0668 0C42.9668 0 53.0668 7.1 53.0668 17C53.0668 26.3 44.0668 33.6 31.2668 35.7Z" fill="#A06AF8"/>
</svg>
