<svg width="54" height="74" viewBox="0 0 54 74" fill="none" xmlns="http://www.w3.org/2000/svg">
<path d="M23.8137 74C13.9137 74 7.61367 72.2 0.513672 69.3L5.11367 45.2H5.21367L18.2137 71.6C18.9137 71.9 19.7137 72 20.4137 72C26.1137 72 31.7137 65.1 31.7137 51.1C31.7137 39.7 27.6137 33.2 18.7137 33.2C13.5137 33.2 9.51367 34.6 6.21367 37.1L5.91367 37L11.2137 0H53.2137L50.0137 18H10.8137L8.41367 34C13.7137 31 19.3137 29.3 26.6137 29.3C43.7137 29.3 53.7137 37.2 53.7137 50C53.7137 64 42.4137 74 23.8137 74Z" fill="#A06AF8"/>
</svg>
