<svg width="244" height="40" viewBox="0 0 244 40" fill="none" xmlns="http://www.w3.org/2000/svg">
<path d="M95.2739 1.59599C95.2739 1.1381 95.8299 -0.202861 94.8814 0.0260838C90.2371 0.255029 89.8773 7.7121 94.2273 8.62788C95.7318 8.88954 97.596 8.82412 98.7735 7.74481C99.1332 7.41774 99.7874 6.6982 99.493 6.40384C99.2968 6.07678 98.2175 6.14219 97.7596 5.84783C96.1897 5.32453 95.3393 3.46026 95.3066 1.98847V1.56329L95.2739 1.59599Z" fill="#E9CDFF"/>
<path d="M22.4693 7.97408C22.7637 9.11881 22.5675 11.7353 22.5675 12.88C22.502 13.7631 22.1096 13.7958 21.3573 13.4034C20.0491 12.7492 17.3998 11.441 17.269 11.8661C22.6656 20.239 15.372 27.8269 6.31235 24.5563C4.93868 24.0657 4.51349 25.0141 5.49469 26.257C8.96157 29.3641 15.9608 26.0935 19.3295 29.4949C23.1235 35.055 17.269 39.405 10.924 39.8629C7.42437 40.0591 0.228945 40.517 0 36.2979C0.0654129 35.0877 1.5372 34.1392 1.63532 32.831C1.56991 31.3265 0.883074 29.3641 1.56991 27.8269C1.89697 26.4532 3.46689 24.9487 3.5323 23.6078C3.63042 22.3322 2.38757 21.2529 2.06051 20.0101C1.27555 17.5898 1.66803 14.9078 3.0417 13.0763C4.5789 10.656 8.63451 9.38046 11.9052 9.77293C13.5405 9.87105 14.8814 10.7214 16.4514 10.4271C18.0213 10.1981 21.063 7.94137 22.3058 7.81055L22.4693 7.94137V7.97408ZM2.71464 33.6814C3.99019 38.7509 10.8913 40.1899 15.1758 37.8678C18.2175 35.4475 13.9984 34.8588 12.0687 34.9242C9.94276 34.9242 4.34996 35.2513 2.78005 33.5832L2.71464 33.6814ZM14.8487 22.4303C15.0123 20.5007 8.83074 7.12371 6.21423 11.8661C4.93868 13.7631 12.6901 28.9716 14.816 22.7574V22.4303H14.8487Z" fill="#F4F3FF"/>
<path d="M23.0908 19.683C23.1889 6.6331 45.2004 6.56769 45.0042 19.8792C45.7564 33.0926 23.5487 33.9757 23.0908 20.1736V19.683ZM39.9346 26.7149C40.3925 24.3273 30.6133 5.39025 28.3239 13.0436C27.7024 15.9544 37.7433 34.4663 39.9346 27.0419V26.7149Z" fill="#F4F3FF"/>
<path d="M63.3197 26.6487C59.8528 31.8163 49.1578 31.849 49.1578 24.0322C48.8961 20.7942 49.0924 15.8556 49.027 12.7485C49.027 11.9308 49.0924 11.4729 48.6345 11.3094C47.8495 11.015 45.7236 11.3094 46.1488 10.9496C48.4709 9.08533 55.4374 3.75417 56.6803 2.80569C57.6942 1.59555 56.6803 10.6552 57.3671 10.3282C58.6754 10.7207 60.5396 10.3936 61.7498 10.5571C64.2682 11.1458 59.3295 11.2112 58.7735 11.1458C57.5306 11.1458 57.1382 11.1785 57.1054 11.9635C57.0727 13.468 57.1054 16.7059 57.1054 18.374C57.04 23.3453 57.1709 27.5645 63.3197 26.4852V26.6487Z" fill="#F4F3FF"/>
<path d="M88.4383 29.5927C86.9338 30.3776 82.8454 29.7562 80.3925 29.9525C78.2011 29.887 77.1218 29.9525 77.9722 29.2983C78.9207 28.2844 78.6263 26.9435 78.659 25.4717C78.332 21.2198 79.4767 17.6548 77.6778 14.3515C76.4023 12.9778 73.5895 13.3376 73.6876 15.3654C73.6222 18.8977 73.6876 24.2942 73.6876 27.8265C73.7203 28.6442 74.0801 29.0694 74.3745 29.331C75.6173 30.3122 70.9403 29.8543 70.2208 29.9525C69.5012 29.8543 62.5674 30.3122 64.4971 29.3637C64.7915 29.2002 65.1512 28.9386 65.2821 28.5461C65.511 25.7987 65.3148 10.394 65.3802 6.79629C65.511 5.61885 63.7449 4.73578 63.9084 3.78729C65.9689 2.3155 70.2862 1.43243 72.7719 0.549352C73.5568 0.385819 73.6549 0.811003 73.6876 1.95573C73.8839 4.08165 73.2625 11.9639 74.0801 12.4545C75.4211 12.4545 77.7432 10.1978 79.3132 10.0015C89.027 7.48312 86.7375 19.5191 86.9665 25.5371C86.8683 27.107 86.9665 29.1021 88.3074 29.4619L88.4383 29.56V29.5927Z" fill="#F4F3FF"/>
<path d="M89.8774 29.2988C90.5315 29.1025 91.7089 29.2988 91.5781 28.7427V26.5187C91.5781 22.6593 91.6108 15.8891 91.5454 15.006C91.0875 14.1557 89.8774 13.7305 89.5503 12.8474C90.3025 12.4876 96.5168 10.4598 98.7408 9.67488C99.6239 9.38052 99.722 9.2824 99.722 9.67488C99.7874 11.9643 99.5912 24.7526 99.7874 29.0371C99.9837 29.1679 101.521 29.2333 101.586 29.5931C101.586 29.9202 100.67 29.8221 99.3622 29.8221H91.2183C90.0736 29.8875 89.5503 29.7566 89.6811 29.4296L89.9101 29.2988H89.8774Z" fill="#F4F3FF"/>
<path d="M103.352 20.1733C103.222 11.3426 114.276 7.18884 121.112 11.3099C121.406 12.9779 120.425 16.6737 120.262 18.7669C119.804 21.4162 120.098 22.7244 118.724 20.1733C116.631 17.0662 113.426 10.8193 109.567 11.6042C107.801 13.076 108.684 15.7906 109.469 17.8184C111.464 22.8552 116.304 26.1259 121.308 26.7146C116.337 33.5175 103.091 29.8544 103.352 20.7293V20.1733Z" fill="#F4F3FF"/>
<path d="M168.438 29.6584C169.223 30.2144 157.809 30.149 158.103 29.7238C159.313 27.7614 158.823 21.7107 158.888 19.1269C158.888 16.9683 158.823 15.104 157.645 14.0247C152.805 11.8661 154.473 19.0615 154.178 22.9208C154.178 25.0468 154.015 28.5136 154.996 29.593C154.342 30.1817 151.921 29.92 150.515 29.9854C148.127 29.9854 145.773 29.9854 145.347 29.7565C144.824 29.5603 145.576 29.2332 145.838 27.9249C146.132 25.6355 145.936 20.6641 145.936 17.8186C146.002 15.889 145.151 13.207 143.123 13.436C142.502 13.5341 141.848 13.7303 141.586 14.3845C141.096 15.4311 141.357 17.7859 141.292 20.566C141.488 24.1637 140.703 27.4997 142.11 29.593C142.469 29.9854 138.806 30.0181 137.825 29.9854C136.255 29.92 132.984 30.2144 131.938 29.6911C131.872 29.4294 133.017 28.8407 133.017 26.9437C133.017 24.2291 133.083 18.8325 133.017 16.5104C132.952 15.3656 132.298 14.3517 131.774 13.3706C131.709 11.8661 133.704 11.9315 135.601 11.1138C137.236 10.5905 138.872 9.90367 139.787 9.80555C141.194 9.57661 141.096 11.3755 142.175 11.6698C142.829 11.9315 143.974 11.31 145.184 10.6559C147.473 9.41307 149.992 9.18413 151.889 10.4924C152.87 11.1792 153.786 12.0296 155.029 11.8988C156.697 11.7352 158.79 9.93638 160.523 9.70743C166.443 8.46459 167.522 14.7442 167.097 19.4212C167.49 22.4302 166.018 27.4343 168.307 29.4948L168.373 29.593L168.438 29.6584Z" fill="#F4F3FF"/>
<path d="M169.975 19.683C170.074 6.6331 192.085 6.56769 191.889 19.8792C192.641 33.0926 170.433 33.9757 169.975 20.1736V19.683ZM186.819 26.7149C187.277 24.3273 177.498 5.39025 175.208 13.0436C174.587 15.9544 184.628 34.4663 186.819 27.0419V26.7149Z" fill="#F4F3FF"/>
<path d="M194.669 19.683C194.767 6.6331 216.778 6.56769 216.582 19.8792C217.334 33.0926 195.127 33.9757 194.669 20.1736V19.683ZM211.513 26.7149C211.971 24.3273 202.191 5.39025 199.902 13.0436C199.28 15.9544 209.321 34.4663 211.513 27.0419V26.7149Z" fill="#F4F3FF"/>
<path d="M243.14 29.593C243.402 29.7565 242.813 29.9201 241.766 29.9528C239.542 29.8874 234.931 30.0836 232.51 29.8547C232.052 29.7565 232.183 29.6257 232.445 29.4622C232.903 29.1351 233.263 28.9062 233.328 28.1866C233.393 25.4066 233.328 20.4679 233.328 18.3747C233.491 15.7909 232.543 12.2586 229.338 13.5668C227.67 14.4826 228.716 16.7067 228.422 18.7672C228.487 22.5938 228.291 27.4998 228.52 28.6772C228.782 29.4295 230.155 29.593 229.24 29.822C227.31 29.9855 221.423 30.0182 219.003 29.822C218.25 29.6257 219.395 29.3641 219.657 29.1024C220.932 27.8269 219.951 24.1964 220.245 22.0051C220.115 19.6175 220.507 16.8375 220.049 14.9405C219.853 14.2537 218.381 13.436 218.545 12.7819C219.428 11.9969 226.427 9.87102 227.637 9.54395C228.52 9.7729 228.324 10.9176 228.52 11.6372C229.109 13.2725 230.515 11.3101 231.725 10.8195C234.669 8.92253 239.673 8.759 240.916 12.7165C242.061 16.4777 241.276 23.804 241.472 27.696C241.374 29.0697 242.29 29.2005 242.911 29.4622L243.107 29.5603L243.14 29.593Z" fill="#F4F3FF"/>
</svg>
