<svg width="52" height="50" viewBox="0 0 52 50" fill="none" xmlns="http://www.w3.org/2000/svg">
<g clip-path="url(#clip0_653_966)">
<path d="M34.9471 0.208806C35.3959 2.00425 35.0913 6.07607 35.0913 7.83946C34.9631 9.20207 34.386 9.25017 33.1997 8.67306C31.1798 7.67915 27.0118 5.61118 26.8675 6.3005C35.2837 19.3175 23.9019 31.1161 9.82683 26.0184C7.6787 25.2809 7.03747 26.7397 8.54437 28.6634C13.9467 33.5047 24.8156 28.3909 30.0897 33.6811C36.0051 42.3056 26.8996 49.0706 17.0246 49.808C11.6062 50.0966 0.368668 50.8019 0.0159912 44.2774C0.128207 42.3698 2.40458 40.911 2.56489 38.8911C2.4687 36.5506 1.41067 33.4887 2.45267 31.1161C2.93359 28.968 5.3863 26.6275 5.49852 24.5596C5.64279 22.5878 3.70307 20.8885 3.20612 18.9488C1.97175 15.1655 2.59695 10.9975 4.72904 8.16007C7.14969 4.40887 13.4177 2.38899 18.4995 3.03022C21.0323 3.1745 23.1484 4.50505 25.5851 4.04016C28.0218 3.65542 32.7508 0.160714 34.7226 -0.015625L34.9791 0.192775L34.9471 0.208806ZM4.24812 40.2056C6.23593 48.1088 16.9766 50.3371 23.6293 46.7301C28.3744 42.9629 21.7858 42.0491 18.8041 42.1614C15.5178 42.1614 6.79701 42.6583 4.32827 40.0453L4.24812 40.2056ZM23.1003 22.716C23.3728 19.7183 13.7544 -1.07366 9.66652 6.28447C7.66267 9.2181 19.7178 32.8635 23.0522 23.229L23.1003 22.7V22.716Z" fill="#FFFDF3"/>
<path d="M44.2129 25.1525C44.1648 24.3349 45.1747 22.0105 43.5075 22.3792C35.3639 22.7799 34.7547 35.8611 42.3373 37.4481C44.9503 37.913 48.2687 37.8168 50.2886 35.9252C50.9138 35.332 52.084 34.0816 51.555 33.6007C51.2183 33.0076 49.3427 33.1519 48.4931 32.6228C45.7518 31.677 44.2289 28.4228 44.1969 25.8739V25.1525H44.2129Z" fill="#E9CDFF"/>
</g>
<defs>
<clipPath id="clip0_653_966">
<rect width="51.6993" height="50" fill="white"/>
</clipPath>
</defs>
</svg>
