<svg width="216" height="216" viewBox="0 0 216 216" fill="none" xmlns="http://www.w3.org/2000/svg">
<path d="M105.51 10.9091C106.27 3.4074 113.719 -1.69052 121.249 0.51965C123.269 1.13269 129.07 3.93977 125.644 6.14995C125.014 6.68233 124.546 7.21471 123.851 7.47283C123.414 7.58576 122.978 7.34377 122.477 7.00498C121.508 6.24675 120.328 5.6337 119.084 5.42398C114.866 4.56895 111.101 7.66642 110.923 11.9093C110.6 15.8134 113.719 19.1045 117.759 19.169C120.457 19.2658 122.849 17.9752 123.027 15.8618C122.267 15.0552 118.518 15.394 117.807 14.9584C117.112 14.8455 117.29 13.3935 117.371 12.603C117.5 11.748 117.371 10.3122 118.486 10.3606C119.649 10.4412 124.222 10.9091 126.679 11.1511C127.842 11.2963 128.424 11.1833 128.65 11.748C128.892 12.4417 128.65 13.9582 128.505 15.0068C126.178 30.0908 104.104 25.6866 105.445 11.1995L105.478 10.893L105.51 10.9091Z" fill="#FFFDF3"/>
<path d="M134.564 14.6196C141.868 -0.367669 163.958 10.3283 156.508 25.4123C149.043 38.8186 128.698 29.1874 134.451 14.8938L134.564 14.6357V14.6196ZM143.048 26.0415C149.172 28.8002 155.183 20.992 151.434 15.6198C144.05 6.44032 132.706 20.4112 142.821 25.9447L143.048 26.0415Z" fill="#FFFDF3"/>
<path d="M156.928 39.0929C157.833 37.5925 167.561 25.3962 168.256 24.3154C168.127 23.8475 167.092 23.3313 166.543 22.8312C165.428 21.8793 164.62 21.6535 164.733 20.7984C165.056 19.9918 165.977 19.0561 166.495 18.3301C166.915 17.83 167.238 17.5235 167.755 17.7171C170.13 19.5078 176.093 24.1218 178.759 26.1706C179.826 26.9288 179.131 27.4935 178.178 28.7518C177.58 29.5262 177.127 30.1715 176.74 30.2522C175.689 30.3167 173.766 28.2033 173.023 27.8161C172.845 27.6871 172.732 27.6226 172.651 27.6226C172.344 27.7839 169.904 31.1395 167.222 34.5273C164.41 38.0765 162.18 41.2063 161.146 42.2871C160.047 42.5937 159.029 41.0611 157.801 40.3351C157.138 39.8511 156.896 39.4478 156.896 39.1897V39.0767L156.928 39.0929Z" fill="#FFFDF3"/>
<path d="M167.949 47.8851C172.36 44.0939 183.963 35.2855 185.789 33.7529C186.128 33.527 186.37 33.5432 186.791 33.882C187.388 34.5595 189.231 36.3825 189.376 37.5118C189.311 37.9635 188.794 38.2701 187.922 38.9638C186.548 40.1576 183.106 42.5129 182.201 43.61C182.169 43.852 182.735 44.4327 183.51 45.433C184.609 46.7881 185.902 48.5143 186.968 49.7726C187.275 50.1114 187.566 49.6758 188.6 48.9015C190.507 47.5463 192.818 45.2716 194.644 44.3521C195.096 44.223 195.71 44.9651 196.567 46.0944C197.553 47.4011 198.199 47.9658 197.714 48.6595C196.195 49.8372 182.121 61.0494 179.81 62.6949C178.776 62.8078 178.291 61.5333 177.451 60.6138C176.82 59.7104 176.061 59.1941 176.626 58.3713C177.984 57.0485 182.104 54.2898 183.219 52.983C182.476 51.644 179.034 47.5302 178.355 46.7397C177.709 46.659 176.4 48.1594 175.511 48.724C173.605 50.1114 172.36 51.4504 171.165 51.9505C170.421 51.9344 170.082 51.2084 169.484 50.5309C168.919 49.7565 167.884 48.7563 167.933 47.998L167.965 47.9013L167.949 47.8851Z" fill="#FFFDF3"/>
<path d="M181.636 66.9862C185.191 65.0987 189.021 63.2435 192.996 61.2107C197.294 59.0328 201.334 57.0001 202.029 56.6452C202.271 56.5484 202.481 56.5807 202.756 56.7743C203.37 57.5164 203.903 58.9683 204.421 59.8556C204.76 60.4686 204.889 60.8397 204.76 61.1301C204.421 61.727 203.968 61.6302 203.273 62.0819C198.991 64.2437 185.595 71.0355 184.27 71.697C183.963 71.8099 183.704 71.7454 183.414 71.4227C183.123 70.9871 182.412 69.4868 181.895 68.4866C181.475 67.7929 181.442 67.3573 181.604 67.0992L181.652 67.0024L181.636 66.9862Z" fill="#FFFDF3"/>
<path d="M197.359 71.9712C206.828 69.019 216.12 79.8762 211.53 88.9105C210.916 90.056 210.367 89.943 209.204 89.2816C208.379 88.7653 207.442 88.5556 206.941 87.749C206.715 87.1198 207.264 86.0389 207.378 85.0226C208.105 80.1989 203.612 75.8108 198.668 77.3434C192.414 79.0696 192.139 86.5068 196.68 90.1528C197.181 90.9755 196.519 91.5724 195.872 92.7178C195.113 94.0246 194.757 94.7022 193.481 93.9117C184.932 88.4427 187.453 74.3911 197.068 72.0519L197.359 71.9712Z" fill="#FFFDF3"/>
<path d="M192.834 105.882C193.642 105.688 194.531 106.076 196.648 106.253C202.546 107.027 213.728 108.463 215.409 108.705C215.619 108.754 215.78 108.85 215.877 109.028C216.265 110.157 215.635 112.706 215.506 113.771C215.344 114.416 215.247 114.642 214.714 114.82C213.195 115.239 200.752 118.191 197.149 119.175C199.831 120.918 210.044 126.209 212.985 127.935C213.841 128.629 213.389 129.371 213.292 130.823C213.001 132.065 213.292 134.114 211.918 134.05C209.349 133.711 191.978 131.468 189.877 131.178C189.263 130.984 189.279 130.662 189.279 129.807C189.344 128.903 189.522 127.258 189.796 126.532C189.974 126.064 190.168 125.903 190.621 125.87C192.657 126.032 197.731 126.79 200.219 127.08C202.271 127.322 203.548 127.58 203.176 127.371C200.251 125.806 192.867 121.999 191.267 121.127C190.604 120.756 190.604 120.192 190.653 119.401C190.798 118.272 190.798 116.917 191.412 116.126C194.466 114.965 201.948 113.755 205.148 112.835C205.18 112.819 205.148 112.803 205.083 112.787C204.146 112.642 194.677 111.448 192.754 111.157C192.123 111.012 191.962 110.786 191.946 110.044C191.994 109.109 192.14 106.624 192.77 105.947L192.851 105.882H192.834Z" fill="#FFFDF3"/>
<path d="M198.797 139.438C213.389 147.537 201.48 168.993 186.791 160.717C173.799 152.522 184.561 132.775 198.539 139.309L198.797 139.438ZM186.904 147.262C182.654 157.942 200.365 161.491 200.138 149.698C199.638 143.229 189.926 140.987 187.017 147.036L186.904 147.262Z" fill="#FFFDF3"/>
<path d="M184.027 166.476C195.323 178.753 177.273 195.354 165.945 182.899C156.185 171.058 172.619 155.7 183.834 166.267L184.044 166.476H184.027ZM170.276 170.171C165.461 174.849 170.535 183.287 176.917 181.786C188.18 178.285 179.309 162.637 170.454 169.993L170.276 170.171Z" fill="#FFFDF3"/>
<path d="M143.613 183.432C145.181 184.271 156.411 192.063 157.51 192.724C156.492 190.272 151.402 181.173 150.966 180.092C150.837 179.689 150.901 179.463 151.257 179.14C151.855 178.656 153.648 177.753 154.537 177.35C155.216 177.124 155.458 177.156 155.733 177.576C156.718 179.85 165.913 196.064 166.22 197.951C165.832 198.742 163.021 199.887 162.196 200.387C161.502 200.678 161.243 200.823 160.694 200.549C159.272 199.629 147.508 191.627 147.039 191.369C147.104 191.788 147.863 192.934 148.736 194.692C150.206 197.548 152.372 201.436 153.681 204.162C154.004 204.678 152.695 205.469 151.984 205.792C151.111 206.147 149.528 207.518 148.865 206.534C147.944 204.791 140.705 191.063 138.782 187.433C137.715 185.836 138.782 185.674 140.737 184.577C142.127 183.883 142.741 183.416 143.484 183.399H143.597L143.613 183.432Z" fill="#FFFDF3"/>
<path d="M129.345 201.275C130.831 211.067 118.696 218.649 110.406 212.777C109.356 212.003 109.55 211.47 110.39 210.422C111.02 209.68 111.376 208.776 112.265 208.421C112.911 208.292 113.913 209.002 114.915 209.26C119.601 210.68 124.626 206.889 123.851 201.791C123.075 195.354 115.723 193.999 111.44 197.935C110.552 198.306 110.051 197.564 109.017 196.773C107.837 195.822 107.223 195.386 108.176 194.241C114.85 186.61 128.44 191.143 129.312 200.984L129.345 201.275Z" fill="#FFFDF3"/>
<path d="M92.3077 190.224C93.2611 192.014 94.4568 195.096 95.3618 197.048C95.8142 197.951 95.7981 198.467 96.5414 198.726C97.4786 198.903 97.414 198.113 97.5594 197.209C97.818 195.451 98.1735 192.708 98.3351 191.756C98.6098 190.675 99.2723 190.885 100.727 191.079C101.971 191.369 103.748 191.079 103.651 192.418C103.28 195.015 100.807 212.842 100.549 214.503C100.129 215.31 99.5308 215.003 98.2381 214.858C94.4084 214.165 89.7545 214.407 86.9751 211.341C83.8887 207.857 85.2461 200.839 89.5768 199.113C90.1262 198.855 90.5463 198.709 90.5948 198.435C90.4009 197.306 89.2374 195.402 88.688 193.999C87.8639 192.127 87.0398 190.546 86.8782 189.917C86.8459 189.691 86.8782 189.53 87.0398 189.433C87.6377 189.127 88.8496 189.465 89.6899 189.546C90.5302 189.675 91.7098 189.74 92.2107 190.159L92.3077 190.256V190.224ZM94.2629 203.259C91.6613 202.743 90.0131 204.695 90.5625 207.26C91.0796 209.389 93.9882 209.325 95.6526 209.599C95.9273 209.696 95.7819 209.325 95.9435 208.566C96.1051 207.389 96.4283 205.163 96.5899 204.017C96.6545 203.469 96.7999 203.63 95.9112 203.485L94.3922 203.275H94.2629V203.259Z" fill="#FFFDF3"/>
<path d="M83.485 188.352C83.081 190.078 76.4073 206.84 75.47 209.486C75.3246 209.906 75.0337 210.115 74.5166 210.067C72.0604 209.244 68.1014 207.647 65.4836 206.679C63.9808 206.05 63.1729 205.969 62.9628 205.453C62.7204 204.775 63.8354 202.194 64.2555 201.662C64.4979 201.452 64.6918 201.339 65.0473 201.436C65.6776 201.581 67.0188 202.162 68.5054 202.71C69.8143 203.194 71.0101 203.694 71.4625 203.791C71.8019 203.775 71.8988 203.646 72.0443 203.275C72.2705 202.388 73.4501 200.403 73.2077 199.597C71.915 198.838 68.4085 197.774 67.3904 197.274C66.5502 196.919 66.6794 196.209 67.0026 195.37C67.5682 194.031 67.7783 192.724 68.667 192.74C69.685 192.837 73.5148 194.692 74.9853 194.951C75.3246 194.951 75.4862 194.241 75.9063 193.208C76.2457 192.321 76.6335 191.385 76.7304 190.966C76.8759 190.45 76.5042 190.385 75.6155 190.046C74.1611 189.433 70.9455 188.385 70.0729 187.852C69.4103 187.594 70.0729 185.981 70.4284 185.126C70.7354 184.384 71.0909 183.27 71.9635 183.561C73.3532 184.061 80.9965 186.981 82.7417 187.642C83.0649 187.771 83.3396 187.997 83.4365 188.272L83.4688 188.368L83.485 188.352Z" fill="#FFFDF3"/>
<path d="M68.5861 182.964C65.0311 185.836 60.652 188.804 56.6445 191.837C52.944 194.563 49.7122 196.951 49.1143 197.37C48.8557 197.483 48.678 197.516 48.3386 197.403C47.7569 197.193 47.1105 196.644 46.4803 196.241C45.3815 195.37 44.2827 195.08 44.1211 194.047C45.7047 188.094 49.9222 173.188 50.5363 170.913C51.0534 169.606 53.1702 171.945 53.9944 172.3C54.4953 172.639 54.867 172.881 55.0447 173.139C55.6749 173.542 54.1883 176.527 54.463 176.946C54.6731 177.269 56.1274 178.14 57.6787 179.253C59.0845 180.221 60.5227 181.222 61.0721 181.593C61.3306 181.754 61.4761 181.754 61.8154 181.512C62.9466 180.899 63.9969 179.028 65.3866 180.173C66.1299 180.851 68.473 181.851 68.6184 182.883V182.98L68.5861 182.964ZM52.8632 181.77C52.1845 183.996 50.9888 187.949 50.2616 190.353C49.793 190.804 56.8707 185.287 57.3716 184.916C56.4182 184.077 53.8489 182.496 52.8794 181.77H52.8632Z" fill="#FFFDF3"/>
<path d="M48.242 167.267C47.1108 168.606 35.6539 179.189 34.7975 180.141C34.8621 180.625 35.7832 181.286 36.2518 181.867C37.2052 182.98 37.9809 183.319 37.7385 184.142C37.3022 184.9 36.2518 185.674 35.6216 186.32C35.1207 186.755 34.7652 187.013 34.2804 186.723C32.1959 184.593 27.0411 179.124 24.7142 176.688C23.7769 175.769 24.5526 175.333 25.6837 174.22C26.3947 173.542 26.928 172.978 27.3319 172.962C28.3661 173.058 29.9497 175.446 30.6284 175.93C30.79 176.091 30.887 176.172 30.9516 176.172C31.2748 176.059 34.1996 173.123 37.3668 170.171C40.6794 167.106 43.3619 164.331 44.5577 163.427C45.6888 163.298 46.4644 164.96 47.5471 165.879C48.1288 166.46 48.3066 166.896 48.2743 167.154V167.267H48.242Z" fill="#FFFDF3"/>
<path d="M38.8208 156.313C34.377 159.378 23.0818 166.799 19.8176 169.025C19.2035 169.332 18.8319 168.783 18.4441 168.17C18.0562 167.573 17.4584 166.702 17.0705 166.121C15.9717 164.75 16.8443 164.508 17.9431 163.782C21.9345 161.12 34.4255 152.78 35.6536 151.973C35.9445 151.812 36.203 151.86 36.5424 152.151C36.8817 152.538 37.7705 153.957 38.4007 154.877C38.9016 155.522 38.9824 155.942 38.8693 156.232L38.8208 156.329V156.313Z" fill="#FFFDF3"/>
<path d="M30.6284 141.809C29.3841 143.197 13.839 156.539 12.4008 157.861C12.1746 157.974 11.916 157.974 11.5928 157.539C11.1727 156.748 9.84765 154.199 9.99308 153.07C11.0111 151.796 16.7638 147.359 20.5935 144.036C22.2256 142.648 23.4052 141.729 23.3729 141.664C20.4158 141.793 7.2137 142.939 6.19567 142.955C4.90293 142.729 4.82214 140.809 4.12729 139.583C3.64252 138.518 3.49708 137.583 4.85446 137.712C8.63571 137.502 25.5221 136.566 27.9783 136.437C29.2548 136.486 29.3195 137.954 29.9497 139.196C30.3537 140.277 30.7253 140.777 30.6607 141.68L30.6284 141.793V141.809Z" fill="#FFFDF3"/>
<path d="M25.005 126.209C23.3082 126.709 5.50081 129.129 2.73759 129.629C2.31745 129.71 1.9781 129.565 1.76803 129.097C1.28326 126.564 0.750004 122.337 0.313706 119.611C0.119796 117.998 -0.187229 117.256 0.152114 116.82C0.766163 116.272 3.6425 115.82 4.38582 116.207C5.12915 117.272 5.3069 122.047 5.7432 123.354C5.92095 123.628 6.06638 123.66 6.48652 123.612C7.22984 123.515 8.61953 123.305 9.37902 123.192C10.7364 123.015 10.2355 122.579 10.1223 121.273C9.94459 119.788 9.37902 116.885 9.45981 116.207C9.33054 115.481 11.3181 115.287 12.3685 115.142C13.742 114.949 14.1298 115.11 14.2914 116.804C14.5661 118.175 14.76 120.837 15.164 122.095C15.3418 122.386 16.0204 122.192 17.1193 122.047C18.0565 121.902 19.0422 121.789 19.4624 121.66C19.9794 121.531 19.8502 121.192 19.7209 120.24C19.5432 118.675 18.8806 115.368 18.9291 114.352C18.8321 113.658 20.5612 113.432 21.4823 113.319C22.2741 113.206 23.4052 112.98 23.583 113.884C23.8253 115.336 25.005 123.402 25.2797 125.225C25.3281 125.58 25.2797 125.919 25.0696 126.145L25.005 126.209Z" fill="#FFFDF3"/>
<path d="M19.8986 101.946C19.2845 102.01 18.7028 101.187 18.2665 100.671C17.6363 99.8968 16.9899 99.187 17.2485 98.6062C17.4424 98.0093 18.2665 97.3479 18.7836 96.7187C19.7854 95.541 20.351 93.6212 19.8016 92.008C19.236 90.5399 17.2646 90.4108 16.3274 91.7014C14.2267 94.2181 12.8532 98.1706 9.44356 99.2354C3.77168 100.929 -0.752894 95.4442 0.959981 89.83C1.33164 87.9748 4.43421 82.28 6.51875 85.087C7.31055 86.0711 8.52249 86.9423 7.50446 88.12C6.5349 89.2815 5.56535 90.4592 5.69463 92.1209C5.69463 93.6535 7.18127 94.6214 8.44169 93.8793C10.914 91.7821 11.8836 87.878 14.8569 86.1841C16.8283 84.9096 20.1248 85.2161 22.0316 86.5551C27.1702 90.1204 25.2149 99.4774 20.1086 101.93L19.9147 101.962L19.8986 101.946Z" fill="#FFFDF3"/>
<path d="M27.7678 79.8278C26.0711 79.3922 11.5925 73.6329 10.3644 73.2779C9.96041 73.5361 9.7665 74.6653 9.42716 75.3429C8.84543 76.6819 8.86159 77.5208 8.00515 77.666C7.13255 77.5854 5.98525 76.9723 5.12881 76.6981C4.53092 76.4399 4.1431 76.2141 4.19158 75.6656C5.20961 72.8746 7.92435 65.8569 9.12013 62.711C9.54027 61.4688 10.2674 61.9689 11.7541 62.5174C12.659 62.8724 13.4023 63.1144 13.5962 63.4693C13.9517 64.4534 12.4812 66.8894 12.3358 67.7122C12.255 67.9219 12.2389 68.051 12.255 68.1155C12.4974 68.3575 16.4079 69.7287 20.4316 71.3098C24.633 72.9714 28.2688 74.1975 29.5938 74.8751C30.1917 75.843 29.0283 77.2466 28.6728 78.634C28.4142 79.4083 28.091 79.7633 27.8325 79.8439L27.7194 79.8762L27.7678 79.8278Z" fill="#FFFDF3"/>
<path d="M25.7641 61.9367C22.5808 59.6136 15.5354 55.1449 14.0487 53.6284C13.9195 52.6927 14.7759 52.0312 15.4061 50.9826C15.8747 50.3373 16.4888 49.208 17.2321 49.4984C21.4335 51.9828 26.2328 56.3871 30.5957 58.2423C33.6337 59.2425 36.4615 55.4514 34.7487 52.8217C32.648 50.1437 31.2098 49.9663 28.3011 47.7077C25.6995 45.9008 22.8232 43.9165 21.9506 43.3035C21.7728 43.1583 21.5466 42.9647 21.5304 42.7227C21.5789 41.7063 23.825 38.7541 24.3421 38.6895C24.8108 38.5927 25.1178 38.9638 25.9904 39.5284C29.303 41.9483 34.377 45.0781 37.7058 47.8529C46.3833 55.645 35.0395 68.906 25.9581 62.0335L25.7803 61.9206L25.7641 61.9367Z" fill="#FFFDF3"/>
<path d="M46.2219 48.6918C42.4245 44.4005 32.9067 32.7366 31.5978 31.2524C31.4201 30.9297 31.4362 30.6555 31.7756 30.2521C32.9875 29.2358 36.3971 26.2835 38.1908 24.9606C43.7172 20.7016 51.1181 22.1374 55.0771 28.0742C59.9895 35.1242 56.3052 41.7063 49.8739 46.2073C48.2418 47.3689 47.4985 48.6434 46.3188 48.7079L46.2219 48.6756V48.6918ZM49.5507 40.2705C55.9659 35.6727 48.6781 25.4446 42.6022 27.9774C41.1964 28.4937 39.6774 29.8972 38.5463 30.8329C38.2392 31.0749 38.5463 31.0749 38.8371 31.5266C41.0186 34.1401 44.3636 38.1572 46.5774 40.8029C47.1106 41.4159 47.4177 41.8515 47.5146 41.9161C47.8863 41.7386 48.9689 40.7545 49.4052 40.4157L49.5507 40.2867V40.2705Z" fill="#FFFDF3"/>
<path d="M65.1926 34.4628C63.2051 30.962 61.266 27.1869 59.1168 23.2828C56.8383 19.0561 54.673 15.0713 54.3175 14.3937C54.2044 14.1517 54.2367 13.942 54.4306 13.6678C55.1578 13.0386 56.596 12.4578 57.4685 11.9254C58.0664 11.5705 58.4381 11.4415 58.729 11.5544C59.3269 11.877 59.2461 12.3287 59.7147 13.0063C61.9931 17.2331 69.1355 30.4296 69.8303 31.7202C69.9596 32.0106 69.895 32.2687 69.5718 32.5914C69.1516 32.8979 67.6488 33.64 66.6793 34.1885C65.9844 34.6241 65.5643 34.6725 65.2896 34.5273L65.1926 34.4789V34.4628Z" fill="#FFFDF3"/>
<path d="M69.9276 18.3624C66.114 2.1329 90.0296 -3.4974 93.7786 12.9095C96.4448 28.0258 74.5653 33.3496 70.0084 18.6366L69.9276 18.3624ZM83.7437 21.8954C94.5219 17.8461 85.2304 2.37489 76.6498 10.4735C72.1899 15.2004 77.07 23.8797 83.5175 21.9599L83.7599 21.8954H83.7437Z" fill="#FFFDF3"/>
<g clip-path="url(#clip0_640_10770)">
<path d="M116.947 83.2084C117.396 85.0038 117.091 89.0756 117.091 90.839C116.963 92.2016 116.386 92.2497 115.2 91.6726C113.18 90.6787 109.012 88.6108 108.868 89.3001C117.284 102.317 105.902 114.116 91.8269 109.018C89.6788 108.281 89.0376 109.739 90.5445 111.663C95.9469 116.504 106.816 111.39 112.09 116.681C118.005 125.305 108.9 132.07 99.0248 132.808C93.6064 133.096 82.3688 133.802 82.0161 127.277C82.1283 125.369 84.4047 123.911 84.565 121.891C84.4688 119.55 83.4108 116.488 84.4528 114.116C84.9337 111.968 87.3864 109.627 87.4986 107.559C87.6429 105.587 85.7032 103.888 85.2062 101.948C83.9719 98.1651 84.5971 93.9971 86.7292 91.1596C89.1498 87.4084 95.4178 85.3886 100.5 86.0298C103.032 86.1741 105.149 87.5046 107.585 87.0397C110.022 86.655 114.751 83.1603 116.723 82.9839L116.979 83.1923L116.947 83.2084ZM86.2482 123.205C88.2361 131.108 98.9767 133.337 105.629 129.73C110.375 125.962 103.786 125.049 100.804 125.161C97.5179 125.161 88.7971 125.658 86.3284 123.045L86.2482 123.205ZM105.1 105.716C105.373 102.718 95.7545 81.9259 91.6666 89.284C89.6628 92.2177 101.718 115.863 105.052 106.229L105.1 105.7V105.716Z" fill="#FFFDF3"/>
<path d="M126.213 108.152C126.165 107.335 127.175 105.01 125.508 105.379C117.364 105.78 116.755 118.861 124.337 120.448C126.95 120.913 130.269 120.817 132.289 118.925C132.914 118.332 134.084 117.081 133.555 116.6C133.218 116.007 131.343 116.152 130.493 115.623C127.752 114.677 126.229 111.423 126.197 108.874V108.152H126.213Z" fill="#E9CDFF"/>
</g>
<defs>
<clipPath id="clip0_640_10770">
<rect width="51.6993" height="50" fill="white" transform="translate(82 83)"/>
</clipPath>
</defs>
</svg>
